<?xml version="1.0" encoding="UTF-8"?><svg id="Layer_1" xmlns="http://www.w3.org/2000/svg" viewBox="0 0 1231.04 1200"><defs><style>.cls-1{fill:#fcfcf9;fill-rule:evenodd;stroke-width:0px;}.cls-1,.cls-2,.cls-3,.cls-4{stroke:#fcfcf9;}.cls-1,.cls-5{stroke-miterlimit:10;}.cls-2,.cls-3{stroke-width:60px;}.cls-2,.cls-3,.cls-4{fill:none;stroke-linecap:round;}.cls-2,.cls-4{stroke-linejoin:round;}.cls-4{stroke-width:30px;}.cls-5{fill:#fff;stroke:#fff;}</style></defs><path class="cls-3" d="M425,210c-1.01-41.65-26.56-71.54-73-73-5.28-.16-138.84,1.1-141,1-47.49-.23-73.63,26.84-75,72-.03,1.22-1.29,138.97-1,145,1.93,40.19,31.2,68.12,75,70"/><path class="cls-3" d="M806,990c1.6,41.65,26.56,72.54,73,74,5.28,.17,138.84-1.01,141-1,47.49,.23,73.96-26.84,75-72,.27-1.22,1.29-138.71,1-145-1.32-40.19-22.2-68.12-66-70"/><path class="cls-3" d="M425,1170s-282.05-.47-283-1c-64.29-3.58-110.59-49.51-112-114-.03-1.32,1-279,1-279"/><path class="cls-3" d="M425,30s-282.05,.95-283,1c-64.29,3.58-110.59,49.51-112,114-.03,1.32,1,279,1,279"/><path class="cls-3" d="M806,1170s282.46-.47,283-1c64.29-3.58,110.59-49.51,112-114,.28-1.32-1-279-1-279"/><path class="cls-3" d="M806,30s282.46,.95,283,1c64.29,3.58,110.59,49.51,112,114,.28,1.32-1,279-1,279"/><path class="cls-2" d="M426,300s.22,124.49,0,125c-72.64,166.59-17.7,261.31,174,175,179.97-81.03,278.98-20.84,206,176-.23,.63,0,124,0,124"/><path class="cls-2" d="M940,776s-133.49-.22-134,0c-166.59,72.64-292.31,15.88-206-175.81,81.28-179.97,20.84-247.98-176-175.19-.63,.23-124,0-124,0"/><path class="cls-1" d="M135,746c16.57,0,30,13.43,30,30s-13.43,30-30,30-30-13.43-30-30,13.43-30,30-30Z"/><path class="cls-1" d="M328,1094c-16.57,0-30-13.43-30-30s13.43-30,30-30,30,13.43,30,30-13.43,30-30,30Z"/><path class="cls-1" d="M135,998c-16.57,0-30-13.43-30-30s13.43-30,30-30,30,13.43,30,30-13.43,30-30,30Z"/><path class="cls-1" d="M425,806c-16.57,0-30-13.43-30-30s13.43-30,30-30,30,13.43,30,30-13.43,30-30,30Z"/><path class="cls-1" d="M328,806c-16.57,0-30-13.43-30-30s13.43-30,30-30,30,13.43,30,30-13.43,30-30,30Zm2,36c16.57,0,30,13.43,30,30s-13.43,30-30,30-30-13.43-30-30,13.43-30,30-30Z"/><path class="cls-1" d="M231,1094c-16.57,0-30-13.43-30-30s13.43-30,30-30,30,13.43,30,30-13.43,30-30,30Z"/><path class="cls-1" d="M231,806c-16.57,0-30-13.43-30-30s13.43-30,30-30,30,13.43,30,30-13.43,30-30,30Z"/><path class="cls-1" d="M425,902c-16.57,0-30-13.43-30-30s13.43-30,30-30,30,13.43,30,30-13.43,30-30,30Z"/><path class="cls-1" d="M135,902c-16.57,0-30-13.43-30-30s13.43-30,30-30,30,13.43,30,30-13.43,30-30,30Z"/><path class="cls-1" d="M231,902c-16.57,0-30-13.43-30-30s13.43-30,30-30,30,13.43,30,30-13.43,30-30,30Z"/><path class="cls-2" d="M230,872h-94"/><path class="cls-2" d="M425,966v-94"/><path class="cls-1" d="M328,998c-16.57,0-30-13.43-30-30s13.43-30,30-30,30,13.43,30,30-13.43,30-30,30Z"/><path class="cls-1" d="M231,998c-16.57,0-30-13.43-30-30s13.43-30,30-30,30,13.43,30,30-13.43,30-30,30Z"/><path class="cls-1" d="M425,998c-16.57,0-30-13.43-30-30s13.43-30,30-30,30,13.43,30,30-13.43,30-30,30Z"/><path class="cls-2" d="M425,1064h-94"/><path class="cls-1" d="M135,1094c-16.57,0-30-13.43-30-30s13.43-30,30-30,30,13.43,30,30-13.43,30-30,30Z"/><path class="cls-1" d="M425,1034c16.57,0,30,13.43,30,30s-13.43,30-30,30-30-13.43-30-30,13.43-30,30-30Z"/><path class="cls-1" d="M1125,135c0,16.57-13.43,30-30,30s-30-13.43-30-30,13.43-30,30-30,30,13.43,30,30Z"/><path class="cls-1" d="M807,358c-16.57,0-30-13.43-30-30s13.43-30,30-30,30,13.43,30,30-13.43,30-30,30Z"/><path class="cls-1" d="M903,165c-16.57,0-30-13.43-30-30s13.43-30,30-30,30,13.43,30,30-13.43,30-30,30Z"/><path class="cls-1" d="M1095,455c-16.57,0-30-13.43-30-30s13.43-30,30-30,30,13.43,30,30-13.43,30-30,30Z"/><path class="cls-1" d="M1095,358c-16.57,0-30-13.43-30-30s13.43-30,30-30,30,13.43,30,30-13.43,30-30,30Zm-96,2c-16.57,0-30-13.43-30-30s13.43-30,30-30,30,13.43,30,30-13.43,30-30,30Z"/><path class="cls-1" d="M807,261c-16.57,0-30-13.43-30-30s13.43-30,30-30,30,13.43,30,30-13.43,30-30,30Z"/><path class="cls-5" d="M1095,261c-16.57,0-30-13.43-30-30s13.43-30,30-30,30,13.43,30,30-13.43,30-30,30Z"/><path class="cls-1" d="M999,455c-16.57,0-30-13.43-30-30s13.43-30,30-30,30,13.43,30,30-13.43,30-30,30Z"/><path class="cls-1" d="M999,165c-16.57,0-30-13.43-30-30s13.43-30,30-30,30,13.43,30,30-13.43,30-30,30Z"/><path class="cls-1" d="M999,261c-16.57,0-30-13.43-30-30s13.43-30,30-30,30,13.43,30,30-13.43,30-30,30Z"/><path class="cls-2" d="M1095,324v-94"/><path class="cls-2" d="M905,425h94"/><path class="cls-1" d="M903,358c-16.57,0-30-13.43-30-30s13.43-30,30-30,30,13.43,30,30-13.43,30-30,30Z"/><path class="cls-1" d="M903,261c-16.57,0-30-13.43-30-30s13.43-30,30-30,30,13.43,30,30-13.43,30-30,30Z"/><path class="cls-1" d="M903,455c-16.57,0-30-13.43-30-30s13.43-30,30-30,30,13.43,30,30-13.43,30-30,30Z"/><path class="cls-2" d="M903,225v-94"/><path class="cls-1" d="M807,165c-16.57,0-30-13.43-30-30s13.43-30,30-30,30,13.43,30,30-13.43,30-30,30Z"/><path class="cls-1" d="M837,425c0,16.57-13.43,30-30,30s-30-13.43-30-30,13.43-30,30-30,30,13.43,30,30Z"/><path class="cls-4" d="M447,539c117.57-117.57,89-89,89-89"/><path class="cls-4" d="M491,581c117.57-117.57,89-89,89-89"/><path class="cls-4" d="M626,710c117.57-117.57,89-89,89-89"/><path class="cls-4" d="M684,755c117.57-117.57,89-89,89-89"/></svg>