<?xml version="1.0" encoding="UTF-8"?><svg id="Layer_1" xmlns="http://www.w3.org/2000/svg" xmlns:xlink="http://www.w3.org/1999/xlink" viewBox="0 0 123.1 120"><defs><style>.cls-1{stroke:url(#linear-gradient-4);}.cls-1,.cls-2,.cls-3,.cls-4,.cls-5,.cls-6,.cls-7,.cls-8,.cls-9,.cls-10,.cls-11,.cls-12,.cls-13,.cls-14,.cls-15,.cls-16,.cls-17,.cls-18,.cls-19,.cls-20,.cls-21,.cls-22,.cls-23,.cls-24,.cls-25{fill:none;}.cls-1,.cls-2,.cls-3,.cls-4,.cls-5,.cls-6,.cls-7,.cls-8,.cls-9,.cls-10,.cls-11,.cls-12,.cls-13,.cls-15,.cls-16,.cls-17,.cls-18,.cls-19,.cls-20,.cls-21,.cls-22,.cls-23,.cls-24,.cls-25{stroke-linecap:round;}.cls-1,.cls-2,.cls-3,.cls-4,.cls-5,.cls-6,.cls-8,.cls-10,.cls-11,.cls-12,.cls-15,.cls-16,.cls-18,.cls-20,.cls-21,.cls-22,.cls-24,.cls-25{stroke-width:6px;}.cls-2{stroke:url(#linear-gradient-42);}.cls-2,.cls-4,.cls-5,.cls-7,.cls-9,.cls-10,.cls-11,.cls-13,.cls-16,.cls-17,.cls-19,.cls-20,.cls-21,.cls-23,.cls-24,.cls-25{stroke-linejoin:round;}.cls-3{stroke:url(#linear-gradient-3);}.cls-4{stroke:url(#linear-gradient-37);}.cls-26{fill:#f9f9fc;}.cls-26,.cls-27,.cls-28,.cls-29,.cls-30,.cls-31,.cls-32,.cls-33,.cls-34,.cls-35,.cls-36,.cls-37,.cls-38,.cls-39,.cls-40,.cls-41,.cls-42,.cls-43,.cls-44,.cls-45,.cls-46,.cls-47,.cls-48,.cls-49,.cls-50,.cls-51,.cls-52,.cls-53,.cls-54,.cls-55,.cls-56,.cls-57{fill-rule:evenodd;}.cls-27{fill:url(#linear-gradient-12);}.cls-5,.cls-8,.cls-17{stroke:#f9f9fc;}.cls-6{stroke:url(#linear-gradient-5);}.cls-7{stroke:url(#linear-gradient-46);}.cls-7,.cls-9,.cls-13,.cls-17,.cls-19,.cls-23{stroke-width:3px;}.cls-28{fill:url(#linear-gradient-21);}.cls-29{fill:url(#linear-gradient-44);}.cls-9,.cls-22,.cls-25{stroke:#f9fcfb;}.cls-30{fill:url(#linear-gradient-35);}.cls-31{fill:url(#linear-gradient-36);}.cls-32{fill:url(#linear-gradient-15);}.cls-10{stroke:url(#linear-gradient-7);}.cls-33{fill:url(#linear-gradient-9);}.cls-11{stroke:url(#linear-gradient-38);}.cls-34{fill:url(#linear-gradient-25);}.cls-35{fill:#f9fcfb;}.cls-36{fill:url(#linear-gradient-34);}.cls-37{fill:url(#linear-gradient-40);}.cls-38{fill:url(#linear-gradient-16);}.cls-39{fill:url(#linear-gradient-29);}.cls-40{fill:url(#linear-gradient-39);}.cls-41{fill:url(#linear-gradient-26);}.cls-42{fill:url(#linear-gradient-14);}.cls-12{stroke:url(#linear-gradient);}.cls-43{fill:url(#linear-gradient-23);}.cls-44{fill:url(#linear-gradient-28);}.cls-45{fill:url(#linear-gradient-27);}.cls-46{fill:url(#linear-gradient-10);}.cls-47{fill:url(#linear-gradient-18);}.cls-48{fill:url(#linear-gradient-41);}.cls-49{fill:url(#linear-gradient-32);}.cls-50{fill:url(#linear-gradient-11);}.cls-13{stroke:url(#linear-gradient-45);}.cls-51{fill:url(#linear-gradient-30);}.cls-58{clip-path:url(#clippath);}.cls-15{stroke:url(#linear-gradient-6);}.cls-16{stroke:url(#linear-gradient-8);}.cls-52{fill:url(#linear-gradient-31);}.cls-18{stroke:url(#linear-gradient-2);}.cls-19{stroke:url(#linear-gradient-47);}.cls-20{stroke:url(#linear-gradient-24);}.cls-21{stroke:url(#linear-gradient-19);}.cls-53{fill:url(#linear-gradient-22);}.cls-54{fill:url(#linear-gradient-13);}.cls-23{stroke:url(#linear-gradient-48);}.cls-55{fill:url(#linear-gradient-43);}.cls-56{fill:url(#linear-gradient-33);}.cls-24{stroke:url(#linear-gradient-20);}.cls-57{fill:url(#linear-gradient-17);}</style><clipPath id="clippath"><rect class="cls-14" width="123.1" height="120"/></clipPath><linearGradient id="linear-gradient" x1="271.5" y1="-227.2" x2="271.5" y2="-256" gradientTransform="translate(-243.5 -213.5) scale(1 -1)" gradientUnits="userSpaceOnUse"><stop offset="0" stop-color="#013842"/><stop offset="1" stop-color="#242754"/></linearGradient><linearGradient id="linear-gradient-2" x1="338.6" y1="-291.1" x2="338.6" y2="-319.9" xlink:href="#linear-gradient"/><linearGradient id="linear-gradient-3" x1="266.25" y1="-291.1" x2="266.25" y2="-330.5" xlink:href="#linear-gradient"/><linearGradient id="linear-gradient-4" x1="266.25" y1="-216.5" x2="266.25" y2="-255.9" xlink:href="#linear-gradient"/><linearGradient id="linear-gradient-5" x1="343.85" y1="-291.1" x2="343.85" y2="-330.5" xlink:href="#linear-gradient"/><linearGradient id="linear-gradient-6" x1="343.85" y1="-216.5" x2="343.85" y2="-255.9" xlink:href="#linear-gradient"/><linearGradient id="linear-gradient-7" x1="304.77" y1="-243.5" x2="304.77" y2="-303.5" xlink:href="#linear-gradient"/><linearGradient id="linear-gradient-8" x1="305.5" y1="-253.13" x2="305.5" y2="-294.14" xlink:href="#linear-gradient"/><linearGradient id="linear-gradient-9" x1="257" y1="-288.1" x2="257" y2="-294.1" xlink:href="#linear-gradient"/><linearGradient id="linear-gradient-10" x1="276.3" y1="-316.9" x2="276.3" y2="-322.9" xlink:href="#linear-gradient"/><linearGradient id="linear-gradient-11" x1="257" y1="-307.3" x2="257" y2="-313.3" xlink:href="#linear-gradient"/><linearGradient id="linear-gradient-12" x1="286" y1="-288.1" x2="286" y2="-294.1" xlink:href="#linear-gradient"/><linearGradient id="linear-gradient-13" x1="276.4" y1="-288.1" x2="276.4" y2="-303.7" xlink:href="#linear-gradient"/><linearGradient id="linear-gradient-14" x1="266.6" y1="-316.9" x2="266.6" y2="-322.9" xlink:href="#linear-gradient"/><linearGradient id="linear-gradient-15" x1="266.6" y1="-288.1" x2="266.6" y2="-294.1" xlink:href="#linear-gradient"/><linearGradient id="linear-gradient-16" x1="286" y1="-297.7" x2="286" y2="-303.7" xlink:href="#linear-gradient"/><linearGradient id="linear-gradient-17" x1="257" y1="-297.7" x2="257" y2="-303.7" xlink:href="#linear-gradient"/><linearGradient id="linear-gradient-18" x1="266.6" y1="-297.7" x2="266.6" y2="-303.7" xlink:href="#linear-gradient"/><linearGradient id="linear-gradient-19" x1="261.8" y1="-300.7" x2="261.8" y2="-301.7" xlink:href="#linear-gradient"/><linearGradient id="linear-gradient-20" x1="286" y1="-300.7" x2="286" y2="-310.1" xlink:href="#linear-gradient"/><linearGradient id="linear-gradient-21" x1="276.3" y1="-307.3" x2="276.3" y2="-313.3" xlink:href="#linear-gradient"/><linearGradient id="linear-gradient-22" x1="266.6" y1="-307.3" x2="266.6" y2="-313.3" xlink:href="#linear-gradient"/><linearGradient id="linear-gradient-23" x1="286" y1="-307.3" x2="286" y2="-313.3" xlink:href="#linear-gradient"/><linearGradient id="linear-gradient-24" x1="281.3" y1="-319.9" x2="281.3" y2="-320.9" xlink:href="#linear-gradient"/><linearGradient id="linear-gradient-25" x1="257" y1="-316.9" x2="257" y2="-322.9" xlink:href="#linear-gradient"/><linearGradient id="linear-gradient-26" x1="286" y1="-316.9" x2="286" y2="-322.9" xlink:href="#linear-gradient"/><linearGradient id="linear-gradient-27" x1="353" y1="-224" x2="353" y2="-230" xlink:href="#linear-gradient"/><linearGradient id="linear-gradient-28" x1="324.2" y1="-243.3" x2="324.2" y2="-249.3" xlink:href="#linear-gradient"/><linearGradient id="linear-gradient-29" x1="333.8" y1="-224" x2="333.8" y2="-230" xlink:href="#linear-gradient"/><linearGradient id="linear-gradient-30" x1="353" y1="-253" x2="353" y2="-259" xlink:href="#linear-gradient"/><linearGradient id="linear-gradient-31" x1="348.2" y1="-243.3" x2="348.2" y2="-249.5" xlink:href="#linear-gradient"/><linearGradient id="linear-gradient-32" x1="324.2" y1="-233.6" x2="324.2" y2="-239.6" xlink:href="#linear-gradient"/><linearGradient id="linear-gradient-33" x1="353" y1="-233.6" x2="353" y2="-239.6" xlink:href="#linear-gradient"/><linearGradient id="linear-gradient-34" x1="343.4" y1="-253" x2="343.4" y2="-259" xlink:href="#linear-gradient"/><linearGradient id="linear-gradient-35" x1="343.4" y1="-224" x2="343.4" y2="-230" xlink:href="#linear-gradient"/><linearGradient id="linear-gradient-36" x1="343.4" y1="-233.6" x2="343.4" y2="-239.6" xlink:href="#linear-gradient"/><linearGradient id="linear-gradient-37" x1="353" y1="-236.5" x2="353" y2="-245.9" xlink:href="#linear-gradient"/><linearGradient id="linear-gradient-38" x1="338.7" y1="-256" x2="338.7" y2="-257" xlink:href="#linear-gradient"/><linearGradient id="linear-gradient-39" x1="333.8" y1="-243.3" x2="333.8" y2="-249.3" xlink:href="#linear-gradient"/><linearGradient id="linear-gradient-40" x1="333.8" y1="-233.6" x2="333.8" y2="-239.6" xlink:href="#linear-gradient"/><linearGradient id="linear-gradient-41" x1="333.8" y1="-253" x2="333.8" y2="-259" xlink:href="#linear-gradient"/><linearGradient id="linear-gradient-42" x1="333.8" y1="-226.6" x2="333.8" y2="-236" xlink:href="#linear-gradient"/><linearGradient id="linear-gradient-43" x1="324.2" y1="-224" x2="324.2" y2="-230" xlink:href="#linear-gradient"/><linearGradient id="linear-gradient-44" x1="324.2" y1="-253" x2="324.2" y2="-259" xlink:href="#linear-gradient"/><linearGradient id="linear-gradient-45" x1="292.8" y1="-258.19" x2="292.8" y2="-267.4" xlink:href="#linear-gradient"/><linearGradient id="linear-gradient-46" x1="297.2" y1="-262.39" x2="297.2" y2="-271.6" xlink:href="#linear-gradient"/><linearGradient id="linear-gradient-47" x1="310.7" y1="-275.29" x2="310.7" y2="-284.5" xlink:href="#linear-gradient"/><linearGradient id="linear-gradient-48" x1="316.5" y1="-279.79" x2="316.5" y2="-289" xlink:href="#linear-gradient"/></defs><g class="cls-58"><g><path class="cls-8" d="M42.5,21c-.1-4.16-2.66-7.15-7.3-7.3-.53-.02-13.88,.11-14.1,.1-4.75-.02-7.36,2.68-7.5,7.2,0,.12-.13,13.9-.1,14.5,.19,4.02,3.12,6.81,7.5,7"/><path class="cls-22" d="M42.5,21c-.1-4.16-2.66-7.15-7.3-7.3-.53-.02-13.88,.11-14.1,.1-4.75-.02-7.36,2.68-7.5,7.2,0,.12-.13,13.9-.1,14.5,.19,4.02,3.12,6.81,7.5,7"/><path class="cls-12" d="M42.5,21c-.1-4.16-2.66-7.15-7.3-7.3-.53-.02-13.88,.11-14.1,.1-4.75-.02-7.36,2.68-7.5,7.2,0,.12-.13,13.9-.1,14.5,.19,4.02,3.12,6.81,7.5,7"/><path class="cls-8" d="M80.6,99c.16,4.16,2.66,7.25,7.3,7.4,.53,.02,13.88-.1,14.1-.1,4.75,.02,7.4-2.68,7.5-7.2,.03-.12,.13-13.87,.1-14.5-.13-4.02-2.22-6.81-6.6-7"/><path class="cls-22" d="M80.6,99c.16,4.16,2.66,7.25,7.3,7.4,.53,.02,13.88-.1,14.1-.1,4.75,.02,7.4-2.68,7.5-7.2,.03-.12,.13-13.87,.1-14.5-.13-4.02-2.22-6.81-6.6-7"/><path class="cls-18" d="M80.6,99c.16,4.16,2.66,7.25,7.3,7.4,.53,.02,13.88-.1,14.1-.1,4.75,.02,7.4-2.68,7.5-7.2,.03-.12,.13-13.87,.1-14.5-.13-4.02-2.22-6.81-6.6-7"/><path class="cls-8" d="M42.5,117s-28.2-.05-28.3-.1c-6.43-.36-11.06-4.95-11.2-11.4,0-.13,.1-27.9,.1-27.9"/><path class="cls-22" d="M42.5,117s-28.2-.05-28.3-.1c-6.43-.36-11.06-4.95-11.2-11.4,0-.13,.1-27.9,.1-27.9"/><path class="cls-3" d="M42.5,117s-28.2-.05-28.3-.1c-6.43-.36-11.06-4.95-11.2-11.4,0-.13,.1-27.9,.1-27.9"/><path class="cls-8" d="M42.5,3s-28.2,.09-28.3,.1C7.77,3.46,3.14,8.05,3,14.5c0,.13,.1,27.9,.1,27.9"/><path class="cls-22" d="M42.5,3s-28.2,.09-28.3,.1C7.77,3.46,3.14,8.05,3,14.5c0,.13,.1,27.9,.1,27.9"/><path class="cls-1" d="M42.5,3s-28.2,.09-28.3,.1C7.77,3.46,3.14,8.05,3,14.5c0,.13,.1,27.9,.1,27.9"/><path class="cls-8" d="M80.6,117s28.25-.05,28.3-.1c6.43-.36,11.06-4.95,11.2-11.4,.03-.13-.1-27.9-.1-27.9"/><path class="cls-22" d="M80.6,117s28.25-.05,28.3-.1c6.43-.36,11.06-4.95,11.2-11.4,.03-.13-.1-27.9-.1-27.9"/><path class="cls-6" d="M80.6,117s28.25-.05,28.3-.1c6.43-.36,11.06-4.95,11.2-11.4,.03-.13-.1-27.9-.1-27.9"/><path class="cls-8" d="M80.6,3s28.25,.09,28.3,.1c6.43,.36,11.06,4.95,11.2,11.4,.03,.13-.1,27.9-.1,27.9"/><path class="cls-22" d="M80.6,3s28.25,.09,28.3,.1c6.43,.36,11.06,4.95,11.2,11.4,.03,.13-.1,27.9-.1,27.9"/><path class="cls-15" d="M80.6,3s28.25,.09,28.3,.1c6.43,.36,11.06,4.95,11.2,11.4,.03,.13-.1,27.9-.1,27.9"/><path class="cls-5" d="M42.6,30s.02,12.45,0,12.5c-7.26,16.66-1.77,26.13,17.4,17.5,18-8.1,27.9-2.08,20.6,17.6-.02,.06,0,12.4,0,12.4"/><path class="cls-25" d="M42.6,30s.02,12.45,0,12.5c-7.26,16.66-1.77,26.13,17.4,17.5,18-8.1,27.9-2.08,20.6,17.6-.02,.06,0,12.4,0,12.4"/><path class="cls-10" d="M42.6,30s.02,12.45,0,12.5c-7.26,16.66-1.77,26.13,17.4,17.5,18-8.1,27.9-2.08,20.6,17.6-.02,.06,0,12.4,0,12.4"/><path class="cls-5" d="M94,77.6s-13.35-.02-13.4,0c-16.66,7.26-29.23,1.59-20.6-17.58,8.13-18,2.08-24.8-17.6-17.52-.06,.02-12.4,0-12.4,0"/><path class="cls-25" d="M94,77.6s-13.35-.02-13.4,0c-16.66,7.26-29.23,1.59-20.6-17.58,8.13-18,2.08-24.8-17.6-17.52-.06,.02-12.4,0-12.4,0"/><path class="cls-16" d="M94,77.6s-13.35-.02-13.4,0c-16.66,7.26-29.23,1.59-20.6-17.58,8.13-18,2.08-24.8-17.6-17.52-.06,.02-12.4,0-12.4,0"/><path class="cls-26" d="M13.5,74.6c1.66,0,3,1.34,3,3s-1.34,3-3,3-3-1.34-3-3,1.34-3,3-3Z"/><path class="cls-35" d="M13.5,74.6c1.66,0,3,1.34,3,3s-1.34,3-3,3-3-1.34-3-3,1.34-3,3-3Z"/><path class="cls-33" d="M13.5,74.6c1.66,0,3,1.34,3,3s-1.34,3-3,3-3-1.34-3-3,1.34-3,3-3Z"/><path class="cls-26" d="M32.8,109.4c-1.66,0-3-1.34-3-3s1.34-3,3-3,3,1.34,3,3-1.34,3-3,3Z"/><path class="cls-35" d="M32.8,109.4c-1.66,0-3-1.34-3-3s1.34-3,3-3,3,1.34,3,3-1.34,3-3,3Z"/><path class="cls-46" d="M32.8,109.4c-1.66,0-3-1.34-3-3s1.34-3,3-3,3,1.34,3,3-1.34,3-3,3Z"/><path class="cls-26" d="M13.5,99.8c-1.66,0-3-1.34-3-3s1.34-3,3-3,3,1.34,3,3-1.34,3-3,3Z"/><path class="cls-35" d="M13.5,99.8c-1.66,0-3-1.34-3-3s1.34-3,3-3,3,1.34,3,3-1.34,3-3,3Z"/><path class="cls-50" d="M13.5,99.8c-1.66,0-3-1.34-3-3s1.34-3,3-3,3,1.34,3,3-1.34,3-3,3Z"/><path class="cls-26" d="M42.5,80.6c-1.66,0-3-1.34-3-3s1.34-3,3-3,3,1.34,3,3-1.34,3-3,3Z"/><path class="cls-35" d="M42.5,80.6c-1.66,0-3-1.34-3-3s1.34-3,3-3,3,1.34,3,3-1.34,3-3,3Z"/><path class="cls-27" d="M42.5,80.6c-1.66,0-3-1.34-3-3s1.34-3,3-3,3,1.34,3,3-1.34,3-3,3Z"/><path class="cls-26" d="M32.8,80.6c-1.66,0-3-1.34-3-3s1.34-3,3-3,3,1.34,3,3-1.34,3-3,3Zm.2,3.6c1.66,0,3,1.34,3,3s-1.34,3-3,3-3-1.34-3-3,1.34-3,3-3Z"/><path class="cls-35" d="M32.8,80.6c-1.66,0-3-1.34-3-3s1.34-3,3-3,3,1.34,3,3-1.34,3-3,3Zm.2,3.6c1.66,0,3,1.34,3,3s-1.34,3-3,3-3-1.34-3-3,1.34-3,3-3Z"/><path class="cls-54" d="M32.8,80.6c-1.66,0-3-1.34-3-3s1.34-3,3-3,3,1.34,3,3-1.34,3-3,3Zm.2,3.6c1.66,0,3,1.34,3,3s-1.34,3-3,3-3-1.34-3-3,1.34-3,3-3Z"/><path class="cls-26" d="M23.1,109.4c-1.66,0-3-1.34-3-3s1.34-3,3-3,3,1.34,3,3-1.34,3-3,3Z"/><path class="cls-35" d="M23.1,109.4c-1.66,0-3-1.34-3-3s1.34-3,3-3,3,1.34,3,3-1.34,3-3,3Z"/><path class="cls-42" d="M23.1,109.4c-1.66,0-3-1.34-3-3s1.34-3,3-3,3,1.34,3,3-1.34,3-3,3Z"/><path class="cls-26" d="M23.1,80.6c-1.66,0-3-1.34-3-3s1.34-3,3-3,3,1.34,3,3-1.34,3-3,3Z"/><path class="cls-35" d="M23.1,80.6c-1.66,0-3-1.34-3-3s1.34-3,3-3,3,1.34,3,3-1.34,3-3,3Z"/><path class="cls-32" d="M23.1,80.6c-1.66,0-3-1.34-3-3s1.34-3,3-3,3,1.34,3,3-1.34,3-3,3Z"/><path class="cls-26" d="M42.5,90.2c-1.66,0-3-1.34-3-3s1.34-3,3-3,3,1.34,3,3-1.34,3-3,3Z"/><path class="cls-35" d="M42.5,90.2c-1.66,0-3-1.34-3-3s1.34-3,3-3,3,1.34,3,3-1.34,3-3,3Z"/><path class="cls-38" d="M42.5,90.2c-1.66,0-3-1.34-3-3s1.34-3,3-3,3,1.34,3,3-1.34,3-3,3Z"/><path class="cls-26" d="M13.5,90.2c-1.66,0-3-1.34-3-3s1.34-3,3-3,3,1.34,3,3-1.34,3-3,3Z"/><path class="cls-35" d="M13.5,90.2c-1.66,0-3-1.34-3-3s1.34-3,3-3,3,1.34,3,3-1.34,3-3,3Z"/><path class="cls-57" d="M13.5,90.2c-1.66,0-3-1.34-3-3s1.34-3,3-3,3,1.34,3,3-1.34,3-3,3Z"/><path class="cls-26" d="M23.1,90.2c-1.66,0-3-1.34-3-3s1.34-3,3-3,3,1.34,3,3-1.34,3-3,3Z"/><path class="cls-35" d="M23.1,90.2c-1.66,0-3-1.34-3-3s1.34-3,3-3,3,1.34,3,3-1.34,3-3,3Z"/><path class="cls-47" d="M23.1,90.2c-1.66,0-3-1.34-3-3s1.34-3,3-3,3,1.34,3,3-1.34,3-3,3Z"/><path class="cls-5" d="M23,87.2H13.6"/><path class="cls-25" d="M23,87.2H13.6"/><path class="cls-21" d="M23,87.2H13.6"/><path class="cls-5" d="M42.5,96.6v-9.4"/><path class="cls-25" d="M42.5,96.6v-9.4"/><path class="cls-24" d="M42.5,96.6v-9.4"/><path class="cls-26" d="M32.8,99.8c-1.66,0-3-1.34-3-3s1.34-3,3-3,3,1.34,3,3-1.34,3-3,3Z"/><path class="cls-35" d="M32.8,99.8c-1.66,0-3-1.34-3-3s1.34-3,3-3,3,1.34,3,3-1.34,3-3,3Z"/><path class="cls-28" d="M32.8,99.8c-1.66,0-3-1.34-3-3s1.34-3,3-3,3,1.34,3,3-1.34,3-3,3Z"/><path class="cls-26" d="M23.1,99.8c-1.66,0-3-1.34-3-3s1.34-3,3-3,3,1.34,3,3-1.34,3-3,3Z"/><path class="cls-35" d="M23.1,99.8c-1.66,0-3-1.34-3-3s1.34-3,3-3,3,1.34,3,3-1.34,3-3,3Z"/><path class="cls-53" d="M23.1,99.8c-1.66,0-3-1.34-3-3s1.34-3,3-3,3,1.34,3,3-1.34,3-3,3Z"/><path class="cls-26" d="M42.5,99.8c-1.66,0-3-1.34-3-3s1.34-3,3-3,3,1.34,3,3-1.34,3-3,3Z"/><path class="cls-35" d="M42.5,99.8c-1.66,0-3-1.34-3-3s1.34-3,3-3,3,1.34,3,3-1.34,3-3,3Z"/><path class="cls-43" d="M42.5,99.8c-1.66,0-3-1.34-3-3s1.34-3,3-3,3,1.34,3,3-1.34,3-3,3Z"/><path class="cls-5" d="M42.5,106.4h-9.4"/><path class="cls-25" d="M42.5,106.4h-9.4"/><path class="cls-20" d="M42.5,106.4h-9.4"/><path class="cls-26" d="M13.5,109.4c-1.66,0-3-1.34-3-3s1.34-3,3-3,3,1.34,3,3-1.34,3-3,3Z"/><path class="cls-35" d="M13.5,109.4c-1.66,0-3-1.34-3-3s1.34-3,3-3,3,1.34,3,3-1.34,3-3,3Z"/><path class="cls-34" d="M13.5,109.4c-1.66,0-3-1.34-3-3s1.34-3,3-3,3,1.34,3,3-1.34,3-3,3Z"/><path class="cls-26" d="M42.5,103.4c1.66,0,3,1.34,3,3s-1.34,3-3,3-3-1.34-3-3,1.34-3,3-3Z"/><path class="cls-35" d="M42.5,103.4c1.66,0,3,1.34,3,3s-1.34,3-3,3-3-1.34-3-3,1.34-3,3-3Z"/><path class="cls-41" d="M42.5,103.4c1.66,0,3,1.34,3,3s-1.34,3-3,3-3-1.34-3-3,1.34-3,3-3Z"/><path class="cls-26" d="M112.5,13.5c0,1.66-1.34,3-3,3s-3-1.34-3-3,1.34-3,3-3,3,1.34,3,3Z"/><path class="cls-35" d="M112.5,13.5c0,1.66-1.34,3-3,3s-3-1.34-3-3,1.34-3,3-3,3,1.34,3,3Z"/><path class="cls-45" d="M112.5,13.5c0,1.66-1.34,3-3,3s-3-1.34-3-3,1.34-3,3-3,3,1.34,3,3Z"/><path class="cls-26" d="M80.7,35.8c-1.66,0-3-1.34-3-3s1.34-3,3-3,3,1.34,3,3-1.34,3-3,3Z"/><path class="cls-35" d="M80.7,35.8c-1.66,0-3-1.34-3-3s1.34-3,3-3,3,1.34,3,3-1.34,3-3,3Z"/><path class="cls-44" d="M80.7,35.8c-1.66,0-3-1.34-3-3s1.34-3,3-3,3,1.34,3,3-1.34,3-3,3Z"/><path class="cls-26" d="M90.3,16.5c-1.66,0-3-1.34-3-3s1.34-3,3-3,3,1.34,3,3-1.34,3-3,3Z"/><path class="cls-35" d="M90.3,16.5c-1.66,0-3-1.34-3-3s1.34-3,3-3,3,1.34,3,3-1.34,3-3,3Z"/><path class="cls-39" d="M90.3,16.5c-1.66,0-3-1.34-3-3s1.34-3,3-3,3,1.34,3,3-1.34,3-3,3Z"/><path class="cls-26" d="M109.5,45.5c-1.66,0-3-1.34-3-3s1.34-3,3-3,3,1.34,3,3-1.34,3-3,3Z"/><path class="cls-35" d="M109.5,45.5c-1.66,0-3-1.34-3-3s1.34-3,3-3,3,1.34,3,3-1.34,3-3,3Z"/><path class="cls-51" d="M109.5,45.5c-1.66,0-3-1.34-3-3s1.34-3,3-3,3,1.34,3,3-1.34,3-3,3Z"/><path class="cls-26" d="M109.5,35.8c-1.66,0-3-1.34-3-3s1.34-3,3-3,3,1.34,3,3-1.34,3-3,3Zm-9.6,.2c-1.66,0-3-1.34-3-3s1.34-3,3-3,3,1.34,3,3-1.34,3-3,3Z"/><path class="cls-35" d="M109.5,35.8c-1.66,0-3-1.34-3-3s1.34-3,3-3,3,1.34,3,3-1.34,3-3,3Zm-9.6,.2c-1.66,0-3-1.34-3-3s1.34-3,3-3,3,1.34,3,3-1.34,3-3,3Z"/><path class="cls-52" d="M109.5,35.8c-1.66,0-3-1.34-3-3s1.34-3,3-3,3,1.34,3,3-1.34,3-3,3Zm-9.6,.2c-1.66,0-3-1.34-3-3s1.34-3,3-3,3,1.34,3,3-1.34,3-3,3Z"/><path class="cls-26" d="M80.7,26.1c-1.66,0-3-1.34-3-3s1.34-3,3-3,3,1.34,3,3-1.34,3-3,3Z"/><path class="cls-35" d="M80.7,26.1c-1.66,0-3-1.34-3-3s1.34-3,3-3,3,1.34,3,3-1.34,3-3,3Z"/><path class="cls-49" d="M80.7,26.1c-1.66,0-3-1.34-3-3s1.34-3,3-3,3,1.34,3,3-1.34,3-3,3Z"/><path class="cls-26" d="M109.5,26.1c-1.66,0-3-1.34-3-3s1.34-3,3-3,3,1.34,3,3-1.34,3-3,3Z"/><path class="cls-35" d="M109.5,26.1c-1.66,0-3-1.34-3-3s1.34-3,3-3,3,1.34,3,3-1.34,3-3,3Z"/><path class="cls-56" d="M109.5,26.1c-1.66,0-3-1.34-3-3s1.34-3,3-3,3,1.34,3,3-1.34,3-3,3Z"/><path class="cls-26" d="M99.9,45.5c-1.66,0-3-1.34-3-3s1.34-3,3-3,3,1.34,3,3-1.34,3-3,3Z"/><path class="cls-35" d="M99.9,45.5c-1.66,0-3-1.34-3-3s1.34-3,3-3,3,1.34,3,3-1.34,3-3,3Z"/><path class="cls-36" d="M99.9,45.5c-1.66,0-3-1.34-3-3s1.34-3,3-3,3,1.34,3,3-1.34,3-3,3Z"/><path class="cls-26" d="M99.9,16.5c-1.66,0-3-1.34-3-3s1.34-3,3-3,3,1.34,3,3-1.34,3-3,3Z"/><path class="cls-35" d="M99.9,16.5c-1.66,0-3-1.34-3-3s1.34-3,3-3,3,1.34,3,3-1.34,3-3,3Z"/><path class="cls-30" d="M99.9,16.5c-1.66,0-3-1.34-3-3s1.34-3,3-3,3,1.34,3,3-1.34,3-3,3Z"/><path class="cls-26" d="M99.9,26.1c-1.66,0-3-1.34-3-3s1.34-3,3-3,3,1.34,3,3-1.34,3-3,3Z"/><path class="cls-35" d="M99.9,26.1c-1.66,0-3-1.34-3-3s1.34-3,3-3,3,1.34,3,3-1.34,3-3,3Z"/><path class="cls-31" d="M99.9,26.1c-1.66,0-3-1.34-3-3s1.34-3,3-3,3,1.34,3,3-1.34,3-3,3Z"/><path class="cls-5" d="M109.5,32.4v-9.4"/><path class="cls-25" d="M109.5,32.4v-9.4"/><path class="cls-4" d="M109.5,32.4v-9.4"/><path class="cls-5" d="M90.5,42.5h9.4"/><path class="cls-25" d="M90.5,42.5h9.4"/><path class="cls-11" d="M90.5,42.5h9.4"/><path class="cls-26" d="M90.3,35.8c-1.66,0-3-1.34-3-3s1.34-3,3-3,3,1.34,3,3-1.34,3-3,3Z"/><path class="cls-35" d="M90.3,35.8c-1.66,0-3-1.34-3-3s1.34-3,3-3,3,1.34,3,3-1.34,3-3,3Z"/><path class="cls-40" d="M90.3,35.8c-1.66,0-3-1.34-3-3s1.34-3,3-3,3,1.34,3,3-1.34,3-3,3Z"/><path class="cls-26" d="M90.3,26.1c-1.66,0-3-1.34-3-3s1.34-3,3-3,3,1.34,3,3-1.34,3-3,3Z"/><path class="cls-35" d="M90.3,26.1c-1.66,0-3-1.34-3-3s1.34-3,3-3,3,1.34,3,3-1.34,3-3,3Z"/><path class="cls-37" d="M90.3,26.1c-1.66,0-3-1.34-3-3s1.34-3,3-3,3,1.34,3,3-1.34,3-3,3Z"/><path class="cls-26" d="M90.3,45.5c-1.66,0-3-1.34-3-3s1.34-3,3-3,3,1.34,3,3-1.34,3-3,3Z"/><path class="cls-35" d="M90.3,45.5c-1.66,0-3-1.34-3-3s1.34-3,3-3,3,1.34,3,3-1.34,3-3,3Z"/><path class="cls-48" d="M90.3,45.5c-1.66,0-3-1.34-3-3s1.34-3,3-3,3,1.34,3,3-1.34,3-3,3Z"/><path class="cls-5" d="M90.3,22.5V13.1"/><path class="cls-25" d="M90.3,22.5V13.1"/><path class="cls-2" d="M90.3,22.5V13.1"/><path class="cls-26" d="M80.7,16.5c-1.66,0-3-1.34-3-3s1.34-3,3-3,3,1.34,3,3-1.34,3-3,3Z"/><path class="cls-35" d="M80.7,16.5c-1.66,0-3-1.34-3-3s1.34-3,3-3,3,1.34,3,3-1.34,3-3,3Z"/><path class="cls-55" d="M80.7,16.5c-1.66,0-3-1.34-3-3s1.34-3,3-3,3,1.34,3,3-1.34,3-3,3Z"/><path class="cls-26" d="M83.7,42.5c0,1.66-1.34,3-3,3s-3-1.34-3-3,1.34-3,3-3,3,1.34,3,3Z"/><path class="cls-35" d="M83.7,42.5c0,1.66-1.34,3-3,3s-3-1.34-3-3,1.34-3,3-3,3,1.34,3,3Z"/><path class="cls-29" d="M83.7,42.5c0,1.66-1.34,3-3,3s-3-1.34-3-3,1.34-3,3-3,3,1.34,3,3Z"/><path class="cls-17" d="M44.7,53.9c11.76-11.76,8.9-8.9,8.9-8.9"/><path class="cls-9" d="M44.7,53.9c11.76-11.76,8.9-8.9,8.9-8.9"/><path class="cls-13" d="M44.7,53.9c11.76-11.76,8.9-8.9,8.9-8.9"/><path class="cls-17" d="M49.1,58.1c11.76-11.76,8.9-8.9,8.9-8.9"/><path class="cls-9" d="M49.1,58.1c11.76-11.76,8.9-8.9,8.9-8.9"/><path class="cls-7" d="M49.1,58.1c11.76-11.76,8.9-8.9,8.9-8.9"/><path class="cls-17" d="M62.6,71c11.76-11.76,8.9-8.9,8.9-8.9"/><path class="cls-9" d="M62.6,71c11.76-11.76,8.9-8.9,8.9-8.9"/><path class="cls-19" d="M62.6,71c11.76-11.76,8.9-8.9,8.9-8.9"/><path class="cls-17" d="M68.4,75.5c11.76-11.76,8.9-8.9,8.9-8.9"/><path class="cls-9" d="M68.4,75.5c11.76-11.76,8.9-8.9,8.9-8.9"/><path class="cls-23" d="M68.4,75.5c11.76-11.76,8.9-8.9,8.9-8.9"/></g></g></svg>